<svg width="30" height="30" viewBox="0 0 30 30" fill="none" xmlns="http://www.w3.org/2000/svg">
<path fill-rule="evenodd" clip-rule="evenodd" d="M25.1925 12.5H26.25C28.6863 12.5 30 14.7537 30 16.875C30 18.4601 28.936 19.6987 27.4465 19.9522C27.1747 21.4002 25.9003 22.5 24.375 22.5C22.8665 22.5 21.6034 21.4243 21.3129 20H8.68712C8.39659 21.4243 7.1335 22.5 5.62498 22.5C4.09796 22.5 2.82242 21.3977 2.5526 19.9474C1.10229 19.6776 0 18.402 0 16.875V14.375C0 12.6525 1.4025 11.25 3.12498 11.25C3.6975 11.25 4.23 10.965 4.54875 10.4887L5.61252 8.89125C6.19377 8.02002 7.16502 7.5 8.2125 7.5H17.2475C17.9538 7.5 18.6475 7.74375 19.2 8.18496L24.125 12.125C24.4275 12.3675 24.8062 12.5 25.1925 12.5ZM22.5001 19.375L22.5 19.3837C22.5047 20.4135 23.3441 21.25 24.375 21.25C25.4088 21.25 26.25 20.4087 26.25 19.375C26.25 18.3413 25.4088 17.5 24.375 17.5C23.3441 17.5 22.5047 18.3366 22.5 19.3664L22.5001 19.375ZM8.68712 18.75H21.3128C21.6033 17.3257 22.8664 16.25 24.375 16.25C25.8569 16.25 27.102 17.2882 27.4209 18.6751C28.1428 18.473 28.75 17.8632 28.75 16.8749C28.75 15.6186 28.0837 13.7499 26.25 13.7499H25.1937C24.5237 13.7499 23.8662 13.5187 23.345 13.0999L18.42 9.16119C18.0875 8.89617 17.6725 8.74992 17.2475 8.74992H8.2125C7.58502 8.74992 7.00125 9.06246 6.6525 9.58494L5.58873 11.1812C5.03748 12.0075 4.1175 12.5 3.12498 12.5C2.09121 12.5 1.24998 13.3412 1.24998 14.375V16.875C1.24998 17.7195 1.81132 18.4354 2.58041 18.6694C2.90134 17.2853 4.14506 16.25 5.62498 16.25C7.1335 16.25 8.39659 17.3257 8.68712 18.75ZM3.74998 19.3795C3.75242 20.4112 4.59271 21.25 5.62498 21.25C6.65875 21.25 7.49999 20.4087 7.49999 19.375C7.49999 18.3413 6.65875 17.5 5.62498 17.5C4.59274 17.5 3.75247 18.3388 3.74998 19.3704L3.75 19.375L3.74998 19.3795ZM15 12.5H20.625C20.97 12.5 21.25 12.78 21.25 13.125C21.25 13.47 20.97 13.75 20.625 13.75H14.375C14.03 13.75 13.7499 13.47 13.7499 13.125V10.625C13.7499 10.28 14.03 9.99995 14.375 9.99995C14.72 9.99995 15 10.28 15 10.625V12.5ZM11.875 12.5H7.88628L8.68503 10.905C8.83878 10.5963 8.7138 10.2213 8.40501 10.0662C8.09499 9.91248 7.72128 10.0362 7.56624 10.3463L6.31626 12.8463C6.21876 13.0388 6.23001 13.27 6.34374 13.4538C6.45747 13.6375 6.65874 13.75 6.87501 13.75H11.875C12.22 13.75 12.5 13.47 12.5 13.125C12.5 12.78 12.22 12.5 11.875 12.5ZM15.625 15H16.875C17.22 15 17.5 15.28 17.5 15.625C17.5 15.97 17.22 16.25 16.875 16.25H15.625C15.28 16.25 15 15.97 15 15.625C15 15.28 15.28 15 15.625 15Z" fill="black"/>
</svg>
